<svg xmlns="http://www.w3.org/2000/svg" viewBox="0 0 96 96"><rect x="2" y="2" width="92" height="92" rx="18" fill="#182537" stroke="#af8c50" stroke-width="2"/><path d="M29 14h38l-5 67-14-7-14 7z" fill="#e4ce8a" stroke="#b29350" stroke-width="2"/><path d="m48 25-9 11 18 5-18 9 16 5-7 10M35 20h26" fill="none" stroke="#92543e" stroke-width="3" stroke-linecap="round"/><path d="M21 53c-15 14 17 30 46 15 15-9 10-23-3-23M17 45l-7 9 12 1" fill="none" stroke="#83c7dd" stroke-width="3"/><path d="m76 18 3 7 7 3-7 3-3 7-3-7-7-3 7-3z" fill="#9ae1eb"/></svg>